<svg width="17" height="18" viewBox="0 0 17 18" fill="none" xmlns="http://www.w3.org/2000/svg">
<path d="M5.75552 9.16189C5.75552 7.65399 6.97831 6.43128 8.48712 6.43128C9.99592 6.43128 11.2194 7.65399 11.2194 9.16189C11.2194 10.6698 9.99592 11.8925 8.48712 11.8925C6.97831 11.8925 5.75552 10.6698 5.75552 9.16189ZM4.27852 9.16189C4.27852 11.4849 6.1627 13.368 8.48712 13.368C10.8115 13.368 12.6957 11.4849 12.6957 9.16189C12.6957 6.83887 10.8115 4.95581 8.48712 4.95581C6.1627 4.95581 4.27852 6.83887 4.27852 9.16189ZM11.8788 4.78904C11.8787 4.98345 11.9363 5.17351 12.0443 5.3352C12.1523 5.49689 12.3059 5.62294 12.4856 5.6974C12.6653 5.77187 12.863 5.79142 13.0538 5.75357C13.2446 5.71572 13.4199 5.62217 13.5575 5.48476C13.6951 5.34735 13.7889 5.17224 13.8269 4.98158C13.8649 4.79093 13.8455 4.59328 13.7711 4.41364C13.6968 4.234 13.5708 4.08044 13.4091 3.97237C13.2474 3.86429 13.0572 3.80657 12.8627 3.80649H12.8623C12.6016 3.80661 12.3516 3.91016 12.1671 4.09438C11.9827 4.27861 11.879 4.52845 11.8788 4.78904ZM5.17589 15.8293C4.37681 15.793 3.94248 15.6599 3.65384 15.5475C3.27118 15.3987 2.99816 15.2213 2.7111 14.9348C2.42404 14.6483 2.24634 14.3757 2.09803 13.9933C1.98551 13.705 1.85241 13.2708 1.81608 12.4722C1.77635 11.6088 1.76841 11.3494 1.76841 9.16196C1.76841 6.97452 1.777 6.71587 1.81608 5.85173C1.85247 5.05313 1.98656 4.61978 2.09803 4.3306C2.247 3.94817 2.42443 3.6753 2.7111 3.38841C2.99776 3.10153 3.27053 2.92394 3.65384 2.77571C3.94235 2.66326 4.37681 2.53024 5.17589 2.49394C6.03983 2.45423 6.29935 2.4463 8.48712 2.4463C10.6749 2.4463 10.9347 2.45488 11.7993 2.49394C12.5984 2.53031 13.032 2.66431 13.3214 2.77571C13.704 2.92394 13.9771 3.10192 14.2641 3.38841C14.5512 3.67491 14.7282 3.94817 14.8772 4.3306C14.9897 4.61893 15.1228 5.05313 15.1591 5.85173C15.1989 6.71587 15.2068 6.97452 15.2068 9.16196C15.2068 11.3494 15.1989 11.608 15.1591 12.4722C15.1228 13.2708 14.989 13.7049 14.8772 13.9933C14.7282 14.3757 14.5508 14.6486 14.2641 14.9348C13.9775 15.2211 13.704 15.3987 13.3214 15.5475C13.0329 15.66 12.5984 15.793 11.7993 15.8293C10.9354 15.869 10.6759 15.877 8.48712 15.877C6.29837 15.877 6.03957 15.869 5.17589 15.8293ZM5.10803 1.02031C4.23551 1.06002 3.63929 1.19829 3.11861 1.40077C2.57937 1.60988 2.12288 1.89041 1.66672 2.34558C1.21055 2.80075 0.930574 3.25768 0.721344 3.7966C0.518736 4.31729 0.380386 4.91283 0.340651 5.78483C0.300261 6.65821 0.291016 6.93743 0.291016 9.16189C0.291016 11.3864 0.300261 11.6656 0.340651 12.539C0.380386 13.411 0.518736 14.0065 0.721344 14.5272C0.930574 15.0658 1.21062 15.5232 1.66672 15.9782C2.12281 16.4332 2.57937 16.7133 3.11861 16.923C3.64027 17.1255 4.23551 17.2638 5.10803 17.3035C5.98239 17.3432 6.26132 17.3531 8.48712 17.3531C10.7129 17.3531 10.9923 17.3438 11.8662 17.3035C12.7388 17.2638 13.3346 17.1255 13.8556 16.923C14.3945 16.7133 14.8514 16.4334 15.3075 15.9782C15.7637 15.523 16.0431 15.0658 16.2529 14.5272C16.4555 14.0065 16.5945 13.411 16.6336 12.539C16.6733 11.6649 16.6826 11.3864 16.6826 9.16189C16.6826 6.93743 16.6733 6.65821 16.6336 5.78483C16.5939 4.91276 16.4555 4.31697 16.2529 3.7966C16.0431 3.25801 15.763 2.80147 15.3075 2.34558C14.8521 1.88969 14.3945 1.60988 13.8563 1.40077C13.3346 1.19829 12.7387 1.05936 11.8669 1.02031C10.993 0.980598 10.7136 0.970703 8.48777 0.970703C6.26197 0.970703 5.98239 0.979943 5.10803 1.02031Z" fill="black"/>
</svg>
